<svg class="salmonTail" width="122" height="122" viewBox="-359 -463 900 500">
  <path d="M3 49c0 6-2 11-5 15l-119 164c-6 8-20 15-30 15h-146c-7 0-11-3-11-8 0-2 1-5 3-7l130-179-130-179-3-7c0-5 4-8 11-8h146c10 0 24 7 30 15L-2 34c3 4 5 10 5 15z" fill="#D95952"></path>
</svg>
<svg width="122" height="122" viewBox="-359 -463 900 500">
  <path d="M408 34L290-130c-6-8-20-15-30-15H16c-10 0-23 7-29 15l-33 45L40 34c3 4 5 10 5 15s-2 11-5 15l-86 119 33 45c6 8 19 15 29 15h244c10 0 24-7 30-15L408 64c3-4 5-10 5-15s-2-11-5-15zM206-90c12 0 21 9 21 21s-9 21-21 21-21-9-21-21 9-21 21-21z" fill="#D95952"></path>
</svg>
